<?xml version="1.0" standalone="no"?>
<!DOCTYPE svg PUBLIC "-//W3C//DTD SVG 20010904//EN"
 "http://www.w3.org/TR/2001/REC-SVG-20010904/DTD/svg10.dtd">
<svg version="1.0" xmlns="http://www.w3.org/2000/svg"
 width="1280.000000pt" height="1280.000000pt" viewBox="0 0 1280.000000 1280.000000"
 preserveAspectRatio="xMidYMid meet">
<metadata>
Created by potrace 1.15, written by Peter Selinger 2001-2017
</metadata>
<g transform="translate(0.000000,1280.000000) scale(0.100000,-0.100000)"
fill="#000000" stroke="none">
<path d="M5385 11134 c-254 -46 -472 -252 -546 -519 -19 -67 -19 -284 0 -350
67 -239 264 -442 485 -499 130 -34 205 -40 301 -22 189 35 285 84 400 201 91
92 162 214 189 326 22 90 21 254 -3 345 -50 192 -196 371 -371 457 -148 72
-286 91 -455 61z"/>
<path d="M2890 10610 c-189 -24 -422 -77 -574 -130 -102 -37 -267 -119 -391
-196 -66 -41 -129 -80 -140 -87 -45 -27 -256 -200 -334 -274 -103 -97 -166
-183 -197 -271 -45 -128 -25 -228 60 -296 35 -29 43 -31 114 -30 113 2 203 46
319 156 181 171 487 316 788 372 274 51 492 55 815 13 133 -18 147 -22 155
-48 10 -29 -14 -165 -42 -244 -52 -143 -167 -334 -268 -444 -67 -72 -177 -231
-367 -526 -39 -60 -104 -154 -145 -209 -92 -123 -116 -171 -153 -298 -30 -105
-40 -162 -65 -368 -22 -178 -30 -776 -16 -1155 7 -170 15 -380 18 -467 6 -159
-7 -290 -41 -428 -8 -30 -20 -80 -26 -110 -33 -155 -165 -580 -180 -580 -17 0
-37 -55 -44 -120 -11 -103 -9 -339 4 -414 12 -76 64 -185 115 -242 37 -42 206
-134 246 -134 16 0 46 9 66 20 26 14 57 20 98 20 l61 0 46 77 c52 87 74 154
84 258 3 39 22 144 41 235 19 91 38 186 43 213 5 26 16 71 24 100 8 28 45 194
81 367 36 173 71 344 79 380 17 77 42 233 51 310 3 30 10 80 15 110 5 30 17
127 26 215 8 88 24 237 34 330 11 94 26 249 35 345 9 96 18 176 20 178 13 13
77 -60 255 -287 47 -60 109 -137 137 -172 101 -122 246 -304 299 -374 29 -38
91 -120 137 -182 146 -191 193 -270 217 -364 12 -46 32 -127 46 -179 13 -52
44 -171 68 -265 24 -93 62 -233 84 -310 39 -136 76 -272 143 -520 28 -107 44
-157 96 -298 36 -101 132 -253 173 -275 43 -22 182 -10 264 23 88 36 185 125
229 209 30 57 32 67 32 171 0 93 -4 122 -27 193 -15 45 -32 106 -37 135 -10
59 -65 370 -81 462 -26 147 -90 435 -115 515 -13 41 -33 109 -45 150 -35 121
-84 243 -121 300 -9 14 -52 93 -94 175 -43 83 -84 160 -92 173 -15 24 -159
288 -255 467 -32 60 -63 114 -67 120 -11 14 -56 94 -109 194 -24 47 -77 142
-118 213 -41 70 -74 130 -74 132 0 3 -31 58 -68 123 -95 165 -97 171 -82 235
32 135 134 274 395 540 107 108 212 206 239 222 32 18 67 30 105 33 53 5 59 3
122 -39 72 -48 198 -152 364 -302 61 -55 155 -140 210 -190 55 -49 156 -143
225 -207 69 -64 148 -135 175 -156 28 -22 57 -48 65 -58 18 -22 224 -189 328
-267 43 -31 97 -72 122 -91 25 -18 68 -42 95 -52 28 -10 57 -24 65 -30 8 -6
31 -18 50 -25 19 -7 42 -19 51 -27 8 -7 20 -13 25 -13 5 0 32 -12 59 -25 28
-14 57 -25 66 -25 9 0 19 -6 22 -14 3 -7 18 -16 34 -20 26 -6 97 -37 133 -58
8 -5 31 -15 50 -24 19 -9 58 -26 85 -39 28 -12 70 -32 95 -43 25 -10 66 -29
92 -41 26 -11 54 -21 62 -21 8 0 17 -4 21 -9 3 -5 28 -17 56 -26 28 -10 63
-24 78 -31 14 -8 33 -14 41 -14 9 0 24 -6 35 -13 31 -21 194 -75 247 -82 26
-3 50 -10 53 -14 2 -5 26 -12 51 -16 54 -8 224 -58 271 -80 17 -8 38 -15 46
-15 8 0 32 -9 54 -19 21 -11 63 -31 93 -46 135 -67 208 -157 236 -289 8 -37
17 -72 20 -77 8 -13 30 -396 28 -481 -6 -256 -17 -473 -29 -533 -7 -38 -17
-90 -20 -115 -8 -55 -38 -116 -73 -151 -15 -14 -92 -78 -172 -143 -80 -65
-161 -132 -180 -150 -19 -17 -55 -47 -80 -66 -25 -19 -52 -41 -61 -49 -8 -9
-73 -63 -144 -121 -71 -58 -149 -125 -175 -150 -25 -25 -89 -83 -143 -130 -53
-46 -97 -88 -97 -92 0 -4 -6 -8 -13 -8 -7 0 -47 -33 -88 -73 -84 -81 -279
-365 -301 -438 -7 -23 -25 -65 -40 -93 -26 -48 -72 -140 -193 -386 -28 -58
-60 -127 -70 -155 -10 -27 -24 -57 -32 -66 -7 -8 -13 -22 -13 -30 0 -8 -11
-32 -25 -54 -13 -22 -25 -47 -25 -56 0 -9 -9 -28 -20 -42 -11 -14 -20 -34 -20
-44 0 -10 -7 -28 -15 -40 -37 -53 -57 -234 -35 -314 13 -47 85 -129 113 -129
12 0 36 -8 52 -17 60 -33 325 -26 325 8 0 5 8 9 18 9 18 0 151 99 152 113 0 5
9 16 20 25 38 33 159 253 218 397 101 245 193 442 229 491 13 17 23 34 23 38
0 11 113 146 147 176 46 42 176 144 208 165 31 19 44 30 73 55 9 9 30 22 46
30 16 8 33 24 38 36 6 12 26 26 47 33 20 6 95 46 166 90 72 44 150 90 174 102
24 13 52 37 63 56 16 27 26 33 54 33 31 0 121 52 185 107 14 12 17 12 22 -2 5
-10 20 -15 51 -15 29 0 50 -6 58 -15 7 -9 20 -24 28 -33 9 -9 33 -51 53 -92
21 -41 41 -82 46 -90 19 -35 50 -107 56 -129 4 -14 16 -38 26 -55 11 -17 19
-37 19 -45 0 -8 9 -33 19 -55 10 -23 34 -84 52 -136 18 -52 39 -106 46 -120 7
-14 13 -34 13 -45 0 -11 7 -33 16 -50 16 -31 85 -226 108 -307 8 -25 21 -61
30 -79 9 -18 16 -38 16 -44 0 -7 11 -29 25 -49 14 -20 25 -41 25 -47 0 -6 11
-34 24 -62 82 -176 106 -230 106 -238 0 -4 14 -35 30 -67 17 -33 30 -65 30
-71 0 -6 5 -11 10 -11 6 0 10 -5 10 -11 0 -15 57 -147 146 -336 19 -39 34 -74
34 -78 0 -6 23 -57 71 -160 10 -22 30 -67 44 -100 15 -33 33 -73 41 -88 8 -16
14 -33 14 -38 0 -6 11 -34 24 -62 13 -29 27 -62 31 -74 3 -13 11 -23 16 -23 5
0 9 -5 9 -10 0 -16 65 -106 96 -134 16 -14 36 -32 44 -40 8 -8 35 -25 60 -37
39 -21 59 -24 145 -24 91 0 106 3 165 31 72 35 145 98 181 159 21 36 24 52 24
165 0 111 -2 129 -22 165 -13 22 -23 45 -23 50 0 6 -9 29 -19 51 -11 22 -23
52 -26 67 -4 14 -13 31 -21 38 -8 6 -14 17 -14 24 0 13 -33 93 -76 180 -13 28
-24 54 -24 59 0 4 -7 24 -16 44 -22 49 -43 99 -88 207 -21 50 -42 94 -47 100
-5 5 -9 16 -9 25 0 8 -11 38 -25 65 -13 28 -25 56 -25 64 0 8 -6 22 -13 30 -7
9 -28 52 -46 96 -18 44 -41 98 -51 120 -10 22 -21 51 -25 65 -4 14 -14 34 -21
45 -8 11 -14 26 -14 35 0 8 -12 40 -26 70 -46 98 -52 114 -74 190 -46 160 -59
207 -71 250 -6 25 -20 72 -30 105 -9 33 -21 78 -25 100 -3 22 -10 45 -15 51
-5 6 -17 56 -28 112 -11 55 -24 110 -30 121 -6 11 -11 34 -11 52 0 17 -9 71
-20 118 -29 129 -50 275 -70 491 -10 107 -24 236 -30 285 -7 56 -12 273 -12
580 0 476 1 491 21 532 12 23 21 46 21 51 0 5 9 21 21 36 17 22 28 26 69 26
44 0 56 -5 106 -46 53 -43 70 -60 126 -126 41 -48 58 -72 107 -148 80 -126 84
-133 123 -210 21 -41 43 -79 48 -84 6 -6 10 -17 10 -27 0 -9 9 -28 20 -42 11
-14 20 -31 20 -38 0 -7 8 -31 18 -53 47 -104 99 -260 118 -356 8 -41 19 -84
24 -95 5 -11 12 -51 15 -90 7 -73 41 -187 77 -256 28 -55 103 -125 140 -133
161 -32 243 47 282 272 17 98 17 110 2 235 -10 73 -24 157 -32 187 -9 30 -19
73 -23 95 -9 46 -46 166 -66 210 -7 17 -20 50 -28 75 -9 25 -28 77 -42 115
-15 39 -33 88 -42 110 -8 22 -21 47 -29 56 -8 8 -14 20 -14 25 0 8 -41 90
-128 259 -9 17 -20 35 -24 40 -5 6 -33 48 -62 95 -30 47 -61 93 -70 103 -9 9
-16 21 -16 26 0 8 -78 113 -114 154 -9 9 -16 20 -16 25 0 4 -24 34 -52 67 -29
33 -60 68 -68 78 -100 117 -314 307 -347 307 -3 0 -18 11 -35 25 -16 14 -36
25 -44 25 -8 0 -22 5 -32 10 -9 6 -37 19 -62 30 -25 12 -63 31 -85 44 -23 13
-65 31 -95 41 -30 10 -59 21 -65 25 -5 4 -35 15 -65 23 -67 19 -152 46 -290
91 -254 84 -226 80 -530 81 -151 0 -412 -2 -580 -5 l-305 -5 -90 26 c-49 15
-112 30 -140 34 -27 4 -65 13 -84 21 -18 8 -45 14 -60 14 -14 0 -42 8 -61 19
-19 10 -46 22 -60 26 -43 12 -298 136 -330 159 -8 6 -37 22 -65 35 -27 13 -57
28 -65 33 -8 4 -31 15 -50 24 -19 9 -42 20 -50 25 -17 10 -28 16 -150 72 -47
21 -92 43 -100 48 -8 5 -35 19 -60 31 -60 29 -454 422 -645 643 -33 39 -91
106 -130 151 -38 45 -114 139 -168 210 -382 502 -406 531 -744 866 -423 420
-462 448 -928 643 -240 101 -497 166 -790 200 -164 19 -272 18 -455 -5z"/>
<path d="M9845 8689 c-69 -17 -169 -51 -185 -64 -8 -6 -30 -17 -47 -25 -18 -7
-33 -16 -33 -21 0 -5 -5 -9 -11 -9 -10 0 -144 -132 -175 -171 -21 -28 -72
-136 -95 -204 -21 -61 -24 -87 -23 -210 0 -121 3 -145 21 -180 11 -22 24 -54
27 -72 4 -17 13 -37 21 -43 8 -6 16 -24 20 -39 3 -14 24 -46 45 -70 22 -24 40
-47 40 -50 0 -8 96 -94 132 -119 35 -25 110 -61 173 -85 51 -19 81 -22 205
-22 158 0 204 10 330 69 78 36 72 32 171 128 59 56 90 97 121 155 105 201 115
438 27 618 -10 22 -19 45 -19 50 -1 41 -218 269 -267 281 -15 4 -35 12 -43 19
-8 7 -53 25 -100 41 -94 30 -259 42 -335 23z"/>
</g>
</svg>
